<svg xmlns="http://www.w3.org/2000/svg" width="488" height="619" viewBox="0 0 488 619">
<g>
<path d="M 455.40 552.13 C452.81,553.59 443.90,553.83 371.96,554.35 C293.22,554.92 291.35,554.89 288.20,552.98 C281.13,548.68 281.38,550.70 280.65,493.24 C280.28,464.78 279.95,411.62 279.90,375.11 C279.82,311.25 279.89,308.62 281.73,306.11 C282.78,304.67 285.19,302.71 287.07,301.75 C290.23,300.14 295.36,300.01 351.50,300.03 L 412.50 300.06 L 433.60 318.28 C445.21,328.30 456.28,337.89 458.20,339.59 L 461.71 342.68 L 462.50 544.84 L 460.40 547.67 C459.24,549.23 456.99,551.23 455.40,552.13 ZM 292.16 543.69 C293.28,545.05 302.28,545.14 371.96,544.51 C433.08,543.95 450.80,543.52 451.83,542.53 C452.93,541.49 453.03,524.54 452.43,445.13 L 451.70 349.00 L 405.04 349.00 L 404.77 329.43 L 404.50 309.87 L 348.75 309.97 C318.09,310.02 292.25,310.35 291.34,310.70 C289.80,311.29 289.72,319.76 290.29,426.75 C290.77,517.57 291.17,542.50 292.16,543.69 ZM 260.34 505.35 C254.48,505.71 218.15,505.98 179.59,505.96 C111.70,505.91 109.38,505.85 105.75,503.93 C103.68,502.84 100.76,500.08 99.25,497.80 L 96.50 493.65 L 95.87 438.07 C95.52,407.51 95.07,323.77 94.87,252.00 C94.50,121.89 94.51,121.49 96.55,118.00 C97.68,116.07 100.53,113.43 102.89,112.12 C107.08,109.80 107.90,109.74 138.22,109.23 L 169.25 108.70 L 168.62 112.60 C167.27,121.01 166.78,137.46 167.48,151.42 C168.20,165.90 168.24,166.09 171.18,169.03 L 174.15 172.00 L 231.33 172.00 C262.77,172.00 296.34,171.70 305.92,171.33 C323.09,170.68 323.38,170.63 326.42,167.92 L 329.50 165.17 L 329.81 145.83 C330.10,128.23 329.18,114.23 327.43,109.67 C326.79,108.02 328.64,107.94 359.29,108.21 L 391.82 108.50 L 395.66 111.56 C396.97,112.61 398.05,113.31 398.94,114.19 C402.96,118.22 402.98,126.24 403.17,190.01 C403.19,194.85 403.20,200.01 403.22,205.52 L 403.50 289.50 L 396.41 289.79 L 389.32 290.08 L 388.66 262.29 C388.30,247.01 388.00,209.88 388.00,179.79 C388.00,128.66 387.89,125.02 386.25,124.24 C384.53,123.43 380.38,123.36 356.75,123.79 L 345.00 124.00 L 345.00 145.53 C345.00,166.34 344.92,167.23 342.58,171.85 C341.25,174.48 338.38,178.23 336.21,180.19 C328.79,186.90 330.43,186.76 249.41,187.47 C197.10,187.93 175.06,187.79 171.91,187.00 C165.45,185.37 158.98,180.21 155.50,173.92 L 152.50 168.50 L 152.18 146.75 L 151.86 125.00 L 110.00 125.00 L 110.04 186.25 C110.13,320.82 111.80,489.26 113.05,490.03 C113.71,490.44 149.52,490.53 192.63,490.24 L 271.00 489.70 L 271.00 504.70 ZM 316.60 158.60 L 313.20 162.00 L 182.35 162.00 L 179.92 159.42 C177.54,156.88 177.50,156.51 177.20,135.54 L 176.89 114.24 L 179.36 111.37 L 181.82 108.50 L 219.35 107.50 L 220.50 102.50 C222.68,92.98 226.62,88.08 235.82,83.48 C246.47,78.16 260.77,80.72 269.28,89.47 C272.60,92.89 274.08,95.91 276.66,104.50 L 277.56 107.50 L 294.12 107.13 C312.39,106.71 316.61,107.64 318.86,112.60 C319.59,114.20 320.00,122.28 320.00,135.15 L 320.00 155.20 ZM 162.00 288.46 C162.00,292.76 161.60,294.14 160.15,294.92 C157.39,296.40 156.00,294.35 156.00,288.80 C156.00,284.54 155.55,283.55 152.05,280.05 C148.39,276.39 147.63,276.08 141.80,275.80 C135.83,275.52 135.50,275.37 135.50,273.00 C135.50,270.61 135.80,270.49 142.25,270.20 L 149.00 269.91 L 149.00 228.09 L 142.25 227.80 C135.80,227.51 135.50,227.39 135.50,225.00 C135.50,222.63 135.83,222.48 141.80,222.20 C147.63,221.92 148.39,221.61 152.05,217.95 C155.68,214.32 156.00,213.56 156.00,208.56 C156.00,202.75 156.83,201.49 160.01,202.50 C161.71,203.04 162.00,204.02 162.00,209.13 C162.00,215.09 162.02,215.13 164.75,214.82 C167.31,214.52 167.52,214.14 167.80,209.33 C168.12,203.87 169.68,201.56 172.37,202.59 C173.62,203.07 174.00,204.59 174.00,209.17 C174.00,215.08 174.02,215.13 176.75,214.82 C179.31,214.52 179.51,214.16 179.61,209.67 C179.73,204.45 181.79,201.32 184.42,202.33 C185.62,202.79 186.00,204.40 186.00,209.04 C186.00,215.10 186.02,215.13 188.75,214.82 C191.31,214.52 191.52,214.14 191.80,209.33 C192.11,203.94 193.86,201.35 196.49,202.36 C197.61,202.79 198.00,204.51 198.00,209.04 C198.00,215.10 198.02,215.13 200.75,214.82 C203.30,214.52 203.54,214.10 204.00,209.10 C204.34,205.48 205.07,203.35 206.22,202.62 C208.78,201.02 209.85,202.74 210.13,208.86 C210.33,213.42 210.78,214.52 213.17,216.29 C214.72,217.43 216.24,219.18 216.56,220.18 C217.04,221.71 218.24,222.00 223.96,222.00 C229.50,222.00 230.91,222.33 231.45,223.72 C232.64,226.82 229.23,228.10 220.61,227.79 C212.56,227.49 211.98,227.20 210.60,222.75 C210.11,221.14 207.94,221.00 183.73,221.00 C164.58,221.00 157.07,221.33 156.20,222.20 C154.49,223.91 154.49,274.09 156.20,275.80 C157.91,277.51 208.09,277.51 209.80,275.80 C210.66,274.94 211.00,268.57 211.02,253.55 C211.02,241.97 211.42,231.89 211.89,231.15 C212.36,230.41 213.59,229.97 214.62,230.16 C216.36,230.50 216.54,231.95 217.00,250.01 L 217.50 269.50 L 223.67 269.80 C230.50,270.12 233.20,271.85 231.00,274.50 C230.16,275.51 227.90,276.00 224.04,276.00 C218.75,276.00 218.02,276.29 214.16,279.96 C210.27,283.66 210.00,284.28 210.00,289.38 C210.00,295.10 208.94,296.47 205.75,294.83 C204.41,294.14 204.00,292.66 204.00,288.46 C204.00,283.06 203.97,283.00 201.00,283.00 C198.00,283.00 198.00,283.01 198.00,288.92 C198.00,295.11 197.00,296.50 193.75,294.83 C192.41,294.14 192.00,292.66 192.00,288.46 C192.00,283.06 191.97,283.00 189.00,283.00 C186.04,283.00 186.00,283.07 186.00,288.38 C186.00,294.47 184.15,297.20 181.50,295.00 C180.51,294.18 180.00,291.94 180.00,288.38 C180.00,283.07 179.96,283.00 177.00,283.00 C174.04,283.00 174.00,283.07 174.00,288.38 C174.00,291.94 173.49,294.18 172.50,295.00 C169.85,297.20 168.00,294.47 168.00,288.38 C168.00,283.07 167.96,283.00 165.00,283.00 C162.03,283.00 162.00,283.06 162.00,288.46 ZM 269.58 364.86 C265.46,366.87 263.42,366.95 260.01,365.24 C255.06,362.76 251.92,357.75 252.99,354.04 C253.44,352.45 253.56,350.89 253.24,350.58 C252.93,350.26 253.19,350.00 253.83,350.00 C255.64,350.00 255.22,347.30 252.83,343.65 C250.70,340.41 250.49,340.34 243.58,340.34 C239.68,340.35 235.33,340.01 233.89,339.59 C231.63,338.92 230.66,339.47 226.62,343.66 C222.75,347.67 222.04,348.98 222.46,351.31 C223.11,354.84 220.81,360.50 218.15,361.92 C214.19,364.04 209.07,363.23 205.80,359.95 C203.10,357.25 202.81,356.40 203.25,352.51 C203.68,348.64 203.40,347.80 200.80,345.31 C198.41,343.02 196.96,342.50 192.99,342.49 C187.14,342.47 183.34,340.05 180.65,334.64 C175.69,324.68 186.00,314.06 196.69,318.13 C203.48,320.72 206.76,328.76 203.60,335.09 C202.01,338.29 202.03,338.42 204.67,341.18 C206.98,343.59 208.16,344.00 212.77,344.00 C217.90,344.00 218.41,343.76 223.14,339.05 C228.10,334.12 228.11,334.10 226.55,331.10 C224.62,327.36 224.54,319.77 226.41,316.20 C228.02,313.13 232.46,308.78 235.68,307.12 C236.89,306.50 239.67,306.00 241.87,306.00 C255.99,306.00 264.55,320.38 257.55,332.33 L 255.09 336.52 L 257.80 340.74 C259.76,343.82 260.98,344.82 262.27,344.41 C265.13,343.51 270.81,345.93 272.98,348.98 C276.54,353.97 274.75,362.34 269.58,364.86 ZM 433.42 485.08 L 430.84 487.50 L 371.14 487.79 L 311.43 488.09 L 309.22 485.73 C307.02,483.39 306.30,478.65 307.79,476.31 C309.73,473.26 314.80,473.00 373.41,473.00 C429.57,473.00 432.78,473.10 434.35,474.83 C436.85,477.60 436.43,482.25 433.42,485.08 ZM 433.44 444.06 L 430.88 446.46 L 371.19 446.82 C369.22,446.83 367.31,446.84 365.46,446.85 C316.63,447.15 310.02,447.19 308.08,444.20 C307.71,443.62 307.51,442.92 307.21,442.09 C305.87,438.37 306.96,435.07 310.07,433.46 C312.46,432.23 322.17,432.00 372.45,432.00 C430.67,432.00 432.04,432.04 434.00,434.00 C436.80,436.80 436.55,441.13 433.44,444.06 ZM 432.63 401.48 C430.92,402.57 418.65,402.98 371.00,403.53 L 311.50 404.22 L 309.26 402.08 C308.03,400.91 306.74,398.83 306.40,397.47 C305.63,394.39 308.16,390.24 311.26,389.49 C312.49,389.19 340.49,389.07 373.49,389.22 L 433.47 389.50 L 434.77 392.20 C436.38,395.57 435.44,399.68 432.63,401.48 ZM 166.15 262.00 C165.49,263.90 164.41,265.00 163.22,265.00 C158.68,265.00 158.90,263.17 165.40,246.96 C170.19,235.04 171.08,233.50 173.15,233.50 C175.23,233.50 176.11,235.01 180.72,246.50 C183.59,253.65 185.84,260.62 185.72,261.99 C185.39,265.71 182.34,265.76 180.25,262.08 C178.62,259.23 178.11,259.01 172.85,259.01 C167.46,259.00 167.15,259.14 166.15,262.00 ZM 239.50 335.34 C247.54,337.05 254.80,330.00 253.67,321.59 C252.04,309.41 234.45,308.62 231.10,320.58 C229.45,326.47 233.81,334.12 239.50,335.34 ZM 415.00 315.89 L 415.00 339.00 L 427.50 339.00 C434.82,339.00 440.00,338.60 440.00,338.04 C440.00,337.13 421.64,320.54 417.14,317.39 ZM 202.89 263.63 C201.72,265.05 190.95,265.62 189.67,264.33 C188.25,262.92 189.08,259.79 191.00,259.29 C192.82,258.81 193.00,257.93 193.00,249.29 C193.00,240.78 192.78,239.64 190.83,238.07 C189.46,236.96 188.90,235.70 189.30,234.66 C190.23,232.24 202.77,232.24 203.70,234.66 C204.10,235.70 203.54,236.96 202.17,238.07 C200.22,239.64 200.00,240.78 200.00,249.41 C200.00,256.94 200.30,259.00 201.39,259.00 C203.32,259.00 204.28,261.96 202.89,263.63 ZM 187.17 334.69 C189.87,337.55 192.93,337.63 196.37,334.93 C201.36,331.00 198.56,323.00 192.19,323.00 C185.94,323.00 182.88,330.12 187.17,334.69 ZM 260.65 359.17 C262.79,361.53 264.52,361.48 267.00,359.00 C270.72,355.28 268.75,350.00 263.64,350.00 C259.55,350.00 257.65,355.85 260.65,359.17 ZM 230.89 238.63 C229.17,240.70 221.29,240.42 220.17,238.25 C218.54,235.09 219.90,234.00 225.48,234.00 C231.10,234.00 233.23,235.81 230.89,238.63 ZM 230.89 250.63 C229.12,252.76 221.29,252.42 220.08,250.15 C218.61,247.40 220.64,246.00 226.09,246.00 C231.10,246.00 233.12,247.94 230.89,250.63 ZM 145.99 250.51 C144.30,252.54 136.14,252.53 135.36,250.50 C134.14,247.31 135.78,246.00 141.00,246.00 C146.43,246.00 148.32,247.71 145.99,250.51 ZM 145.99 262.51 C144.30,264.54 136.14,264.53 135.36,262.50 C134.14,259.31 135.78,258.00 141.00,258.00 C146.43,258.00 148.32,259.71 145.99,262.51 ZM 145.99 238.51 C144.30,240.54 136.14,240.53 135.36,238.50 C134.14,235.31 135.78,234.00 141.00,234.00 C146.43,234.00 148.32,235.71 145.99,238.51 ZM 231.00 262.50 C229.13,264.75 221.34,264.51 220.08,262.15 C218.65,259.48 220.61,258.00 225.58,258.00 C230.48,258.00 233.00,260.09 231.00,262.50 ZM 210.20 356.80 C211.80,358.40 212.38,358.32 215.02,356.19 C217.66,354.05 217.06,350.47 213.90,349.47 C210.01,348.23 207.20,353.80 210.20,356.80 ZM 170.51 251.25 C169.91,252.70 170.33,253.00 172.89,253.00 C176.30,253.00 176.58,252.36 174.84,248.55 C173.48,245.57 172.43,245.30 171.73,247.75 C171.45,248.71 170.90,250.29 170.51,251.25 Z" fill="#70A6C1"/>
</g>
</svg>