<svg xmlns="http://www.w3.org/2000/svg" width="914" height="355" viewBox="0 0 914 355">
<g>
<path d="M 786.30 297.18 C784.55,295.67 781.14,293.92 778.73,293.27 C773.95,292.00 773.02,290.52 769.67,279.00 C764.70,261.92 759.99,225.18 759.99,203.50 C759.99,184.03 763.74,155.07 766.69,151.80 C767.53,150.86 769.41,150.11 770.86,150.13 C772.31,150.15 775.97,150.02 778.98,149.83 L 784.46 149.50 L 785.79 161.00 C787.28,173.80 787.33,175.44 786.43,182.26 C785.89,186.33 786.02,186.93 787.38,186.41 C788.25,186.08 791.23,182.74 794.00,178.99 C799.78,171.20 805.82,165.44 810.36,163.39 C812.09,162.61 814.17,161.56 815.00,161.06 C815.83,160.56 817.36,159.87 818.42,159.54 C819.88,159.08 820.06,158.66 819.17,157.77 C817.22,155.82 817.84,155.00 821.28,155.00 C823.08,155.00 825.51,154.33 826.67,153.52 C827.84,152.70 831.99,151.74 835.91,151.37 L 843.02 150.71 L 848.01 155.91 C850.75,158.78 853.00,161.66 853.00,162.33 C853.00,162.99 854.23,165.33 855.74,167.52 C857.58,170.20 858.64,173.27 858.99,176.92 C859.78,185.26 861.85,184.61 862.20,175.90 C862.40,171.22 862.94,168.51 863.75,168.25 C865.71,167.60 865.45,195.82 863.47,198.44 C862.66,199.51 862.00,201.08 862.00,201.94 C862.00,205.39 855.17,216.84 849.94,222.14 C843.36,228.81 834.12,233.47 825.87,234.28 C822.78,234.58 819.35,235.39 818.26,236.07 C816.61,237.10 815.84,236.99 813.67,235.40 C810.72,233.25 810.29,232.00 812.50,232.00 C813.33,232.00 814.00,232.58 814.00,233.28 C814.00,233.99 815.12,234.66 816.50,234.77 C817.94,234.89 819.00,234.45 818.99,233.74 C818.98,231.97 812.58,227.84 810.86,228.50 C809.98,228.84 808.49,227.80 807.06,225.87 C805.15,223.28 804.67,221.29 804.51,215.29 C804.36,209.41 804.64,207.74 805.91,207.09 C808.12,205.95 810.00,206.82 810.00,208.98 C810.00,210.97 815.17,217.00 816.88,217.00 C819.08,217.00 824.19,213.14 826.94,209.38 C833.71,200.15 842.00,181.60 842.00,175.68 C842.00,174.37 840.97,171.77 839.72,169.90 C837.76,166.99 836.79,166.46 832.97,166.23 C829.14,165.99 827.24,166.69 819.75,171.06 C807.65,178.11 801.20,186.87 795.47,204.00 C793.29,210.52 792.96,223.67 794.05,261.26 C794.68,282.77 794.55,286.90 793.09,292.70 C792.16,296.36 790.98,299.49 790.45,299.64 C789.93,299.79 788.06,298.68 786.30,297.18 ZM 318.00 298.16 C318.00,297.26 313.64,294.93 308.20,292.93 C306.39,292.26 304.29,290.53 303.54,289.08 C301.06,284.27 296.72,266.86 295.05,255.00 C294.55,251.43 293.82,247.38 293.44,246.00 C293.06,244.62 292.30,234.18 291.75,222.80 C290.19,190.54 292.79,155.94 297.07,151.85 C297.86,151.10 299.85,150.48 301.50,150.47 C303.15,150.45 306.86,150.10 309.75,149.69 L 315.00 148.93 L 315.00 155.03 C315.00,158.39 315.45,161.97 315.99,162.98 C316.95,164.78 317.44,176.44 316.81,182.47 C316.35,186.86 319.02,186.75 322.00,182.26 C325.29,177.32 325.32,177.27 330.12,171.75 C334.34,166.88 335.60,166.00 344.79,161.44 C348.78,159.46 349.83,158.50 349.05,157.56 C347.64,155.86 348.75,155.00 352.34,155.00 C353.99,155.00 356.08,154.34 356.97,153.53 C357.89,152.70 361.70,151.76 365.65,151.40 C372.70,150.74 372.71,150.74 376.65,154.30 C378.81,156.26 381.24,159.13 382.04,160.68 C382.84,162.23 384.74,165.37 386.25,167.65 C388.34,170.79 389.00,173.00 389.00,176.84 C389.00,179.61 389.43,182.15 389.95,182.47 C391.85,183.64 393.21,178.85 392.53,173.38 C391.72,166.88 393.64,165.94 396.31,171.53 C398.22,175.53 398.45,181.60 396.91,187.50 C396.34,189.70 395.52,193.07 395.10,195.00 C394.04,199.83 389.49,209.28 384.63,216.77 C381.64,221.36 378.81,224.17 374.03,227.31 C366.09,232.50 361.91,234.00 355.33,234.00 C351.33,234.00 349.73,233.48 347.58,231.48 C346.08,230.10 343.57,228.86 342.00,228.73 C339.99,228.57 338.43,227.45 336.72,224.93 C334.66,221.89 334.33,220.31 334.50,214.43 C334.61,210.62 334.77,207.12 334.85,206.67 C335.15,204.97 337.46,206.73 338.01,209.07 C338.35,210.52 339.42,211.62 340.65,211.80 C341.79,211.97 343.23,213.20 343.84,214.55 C347.07,221.64 356.24,213.55 365.44,195.50 C372.25,182.13 373.58,174.06 369.81,168.96 C367.92,166.40 367.00,166.01 363.06,166.08 C360.19,166.13 357.02,167.03 354.50,168.52 C352.30,169.81 348.48,171.99 346.00,173.37 C337.98,177.81 328.92,191.66 325.95,204.00 C323.39,214.66 323.16,217.37 323.51,232.04 C324.07,255.82 325.06,278.21 325.67,281.24 C325.98,282.74 325.50,285.79 324.61,288.01 C323.73,290.23 323.00,293.61 323.00,295.52 C323.00,298.57 322.69,299.00 320.50,299.00 C319.12,299.00 318.00,298.62 318.00,298.16 ZM 69.17 248.69 C67.98,247.41 67.00,245.64 67.00,244.74 C67.00,243.85 66.52,242.82 65.93,242.46 C65.34,242.09 65.09,241.20 65.37,240.47 C65.65,239.74 65.18,238.57 64.33,237.86 C63.05,236.79 62.56,236.88 61.46,238.39 C59.89,240.53 58.46,239.91 57.68,236.76 C57.37,235.52 56.39,231.57 55.49,228.00 C54.60,224.43 53.53,219.70 53.11,217.50 C52.70,215.30 51.86,211.93 51.26,210.00 C47.52,198.05 46.81,183.83 48.18,148.50 C49.50,114.62 52.30,100.74 59.55,92.12 C62.07,89.13 62.37,89.02 64.04,90.54 C65.72,92.05 65.92,92.01 67.05,89.83 C71.82,80.58 79.00,80.82 79.00,90.23 C79.00,92.09 79.49,94.09 80.10,94.70 C81.36,95.96 80.78,112.50 79.19,120.50 C78.65,123.25 77.87,131.51 77.47,138.86 L 76.73 152.21 L 78.87 151.07 C80.04,150.44 81.00,149.27 81.00,148.47 C81.00,146.25 87.82,131.63 95.44,117.50 C104.02,101.59 117.97,85.59 127.50,80.73 C133.26,77.79 133.98,77.67 145.53,77.77 C158.59,77.89 162.80,76.87 157.25,74.94 C151.31,72.86 153.13,71.61 163.75,70.47 C170.72,69.73 178.48,71.17 183.54,74.16 C187.08,76.24 193.82,83.91 196.17,88.50 C197.01,90.15 198.40,92.85 199.24,94.50 C201.27,98.47 202.36,110.15 201.47,118.47 C200.86,124.12 200.41,125.27 198.51,126.00 C195.95,126.97 195.00,128.90 195.00,133.10 C195.00,134.71 194.62,136.81 194.15,137.76 C188.34,149.61 189.10,148.60 173.66,164.79 C168.08,170.63 159.34,177.11 151.00,181.58 C149.07,182.61 145.48,185.07 143.00,187.05 C137.93,191.09 134.73,192.96 127.50,196.07 C124.75,197.26 120.25,199.25 117.50,200.50 C114.75,201.76 111.38,203.02 110.00,203.32 C108.62,203.62 105.70,204.33 103.50,204.91 C96.83,206.65 88.92,206.24 84.61,203.93 C78.92,200.88 78.41,201.98 79.82,214.23 C80.48,219.88 81.01,228.70 81.01,233.84 C81.00,244.01 79.82,246.82 74.37,249.65 C71.17,251.31 71.74,251.42 69.17,248.69 ZM 80.20 197.80 C79.27,196.87 79.00,197.13 79.00,199.00 C79.00,200.87 79.27,201.13 80.20,200.20 C81.13,199.27 81.13,198.73 80.20,197.80 ZM 105.71 184.38 C106.93,183.62 109.43,183.00 111.27,183.00 C113.56,183.00 117.81,181.11 124.77,176.99 C141.24,167.26 159.41,147.49 166.63,131.45 C171.33,121.02 172.12,117.80 172.30,108.24 C172.46,99.83 172.34,99.30 169.02,94.28 C164.00,86.69 158.29,83.96 146.00,83.29 C137.32,82.82 136.15,82.98 132.41,85.14 C125.92,88.89 121.24,93.01 119.95,96.12 C119.29,97.71 118.14,99.00 117.38,99.00 C116.62,99.00 116.00,99.45 116.00,100.01 C116.00,100.57 112.83,104.43 108.96,108.61 C101.74,116.40 96.03,125.09 96.01,128.32 C96.00,130.18 91.07,143.23 88.45,148.33 C87.65,149.89 87.00,151.94 87.00,152.89 C87.00,153.84 86.34,155.49 85.53,156.56 C84.72,157.63 84.03,159.62 84.00,161.00 C83.96,162.38 83.29,164.62 82.50,166.00 C81.71,167.38 81.05,169.71 81.04,171.19 C81.02,172.67 80.55,174.16 80.00,174.50 C77.86,175.82 79.19,179.02 83.25,182.34 C85.59,184.25 88.62,186.01 90.00,186.26 C94.05,186.98 103.32,185.88 105.71,184.38 ZM 698.50 246.99 C694.00,245.34 687.82,240.29 681.59,233.17 C680.54,231.97 679.33,229.08 678.90,226.75 C677.59,219.69 676.34,214.64 675.24,212.00 C673.66,208.20 671.17,195.77 669.50,183.32 C668.50,175.86 667.99,163.53 667.98,146.32 C667.95,110.95 670.45,95.77 677.60,88.00 C678.86,86.62 680.60,83.81 681.46,81.75 C683.14,77.72 683.89,77.30 685.86,79.25 C686.87,80.25 687.32,80.15 688.11,78.75 C688.84,77.45 690.38,77.00 694.03,77.00 C698.60,77.00 699.01,77.20 699.56,79.75 C699.89,81.26 700.61,83.69 701.16,85.14 C701.70,86.59 701.91,91.74 701.62,96.64 C699.58,130.43 699.07,137.21 698.12,143.00 C697.53,146.57 696.97,160.52 696.87,174.00 C696.69,198.10 697.36,206.11 701.02,223.00 C701.55,225.48 702.28,230.20 702.63,233.50 C702.98,236.80 703.95,240.29 704.79,241.25 C705.62,242.21 706.00,243.00 705.62,243.00 C705.24,243.00 705.44,243.96 706.07,245.13 C706.96,246.79 706.91,247.44 705.85,248.11 C704.20,249.16 704.57,249.22 698.50,246.99 ZM 202.00 243.27 C197.20,242.39 194.04,236.48 192.51,225.58 C192.14,222.88 191.12,219.59 190.26,218.28 C188.97,216.31 188.81,213.93 189.34,204.70 C190.27,188.35 193.60,180.32 203.89,169.67 C208.19,165.22 214.51,160.33 222.00,155.67 L 233.50 148.50 L 241.50 148.63 C248.47,148.75 250.27,149.18 255.50,152.00 C262.62,155.83 264.73,157.58 266.60,161.20 C268.46,164.79 268.40,165.00 265.56,165.00 C262.05,165.00 261.32,166.98 264.06,169.04 C266.06,170.55 266.21,171.05 265.08,172.41 C264.00,173.70 261.49,174.00 251.63,174.02 C242.00,174.04 238.68,174.42 235.50,175.89 C231.07,177.93 224.01,184.65 221.93,188.81 C221.19,190.29 220.13,192.11 219.57,192.87 C216.91,196.47 213.00,212.08 213.00,219.13 C213.00,224.01 215.13,225.78 218.78,223.93 C227.39,219.59 236.17,211.19 246.41,197.50 C250.93,191.45 255.90,185.83 257.44,185.02 C260.15,183.58 260.34,183.64 263.12,186.98 C264.71,188.87 266.00,191.23 266.00,192.21 C266.00,193.20 266.92,194.92 268.04,196.04 C270.97,198.97 271.87,201.95 272.62,211.25 C273.00,216.06 274.11,221.28 275.26,223.76 C276.89,227.29 277.01,228.29 275.94,229.58 C274.89,230.84 274.88,231.79 275.91,234.64 C277.34,238.58 276.73,239.92 274.20,238.42 C270.54,236.24 261.00,212.81 261.00,206.01 C261.00,204.90 260.34,204.00 259.52,204.00 C257.73,204.00 248.18,216.65 244.91,223.35 C242.34,228.63 232.92,238.00 227.74,240.45 C225.17,241.66 207.14,244.36 205.00,243.85 C204.73,243.78 203.38,243.52 202.00,243.27 ZM 423.75 240.93 C420.87,239.41 420.00,238.34 420.00,236.32 C420.00,234.87 418.96,232.30 417.69,230.59 C413.58,225.08 409.49,211.53 410.36,206.31 C413.39,188.11 415.29,184.71 431.49,168.41 C446.15,153.66 449.15,152.03 461.69,151.96 C465.70,151.94 469.53,151.34 471.00,150.50 C474.72,148.37 487.34,148.53 490.79,150.75 C495.20,153.60 496.93,156.26 496.97,160.29 C496.99,162.37 497.75,165.22 498.67,166.62 C500.47,169.37 500.80,178.29 499.18,180.33 C498.66,180.97 497.90,182.62 497.48,184.00 C494.94,192.34 484.64,203.61 476.80,206.63 C466.67,210.54 464.46,211.11 457.45,211.68 C451.63,212.16 450.10,211.96 448.70,210.56 C446.82,208.68 446.45,205.46 448.00,204.50 C448.55,204.16 449.00,203.01 449.00,201.94 C449.00,200.31 449.71,200.00 453.52,200.00 C457.43,200.00 458.18,199.66 459.00,197.50 C459.80,195.40 460.60,195.00 463.98,195.00 C468.19,195.00 469.43,196.39 466.00,197.29 C463.72,197.89 463.27,200.00 465.42,200.00 C467.33,200.00 473.16,196.86 474.68,195.00 C475.36,194.18 475.69,192.75 475.42,191.83 C475.14,190.92 475.39,189.88 475.96,189.53 C476.53,189.17 477.00,189.58 477.00,190.44 C477.00,192.28 478.57,192.50 479.62,190.81 C480.02,190.15 479.82,189.44 479.18,189.23 C477.75,188.75 477.60,186.00 479.00,186.00 C479.55,186.00 480.00,186.45 480.00,187.00 C480.00,187.55 480.67,188.00 481.50,188.00 C482.33,188.00 483.00,187.52 483.00,186.93 C483.00,186.34 483.71,185.15 484.58,184.28 C485.58,183.28 485.91,181.93 485.48,180.60 C485.12,179.45 484.57,177.15 484.28,175.50 C483.38,170.40 482.21,169.71 475.47,170.25 C468.23,170.83 461.50,173.62 454.38,179.01 C448.75,183.25 439.44,194.77 437.40,200.00 C437.08,200.82 436.45,202.40 436.00,203.50 C434.01,208.36 432.00,216.13 432.00,218.99 C432.00,222.94 434.39,227.60 437.18,229.09 C440.20,230.71 454.35,229.43 461.66,226.87 C467.78,224.73 481.37,217.77 484.08,215.39 C488.28,211.70 491.54,215.43 488.13,220.03 C486.96,221.62 486.00,223.30 486.00,223.77 C486.00,225.75 469.76,235.00 466.30,235.00 C465.24,235.00 462.04,236.12 459.19,237.50 C456.34,238.88 453.22,240.02 452.25,240.04 C451.29,240.05 449.38,240.71 448.00,241.50 C444.01,243.78 428.46,243.42 423.75,240.93 ZM 708.00 242.06 C708.00,240.21 712.21,234.01 713.10,234.56 C714.65,235.52 714.09,239.61 712.17,241.35 C710.16,243.16 708.00,243.53 708.00,242.06 ZM 730.46 236.25 C729.54,233.09 728.41,228.02 727.94,225.00 C727.47,221.98 726.36,217.02 725.46,214.00 C722.46,203.88 721.80,197.67 722.43,185.50 C723.19,170.85 724.73,161.41 726.68,159.46 C729.83,156.31 734.78,158.67 736.94,164.34 C738.32,167.96 740.36,167.29 741.00,163.00 C741.67,158.53 743.52,158.16 745.87,162.02 C747.45,164.63 747.81,167.21 747.89,176.66 C747.94,182.97 747.31,192.60 746.49,198.06 C745.63,203.79 745.00,214.97 745.00,224.49 C745.00,233.57 744.66,240.99 744.25,240.97 C743.84,240.95 742.63,240.28 741.56,239.47 C738.90,237.46 737.33,237.63 736.71,240.00 C736.40,241.17 735.35,242.00 734.16,242.00 C732.56,242.00 731.79,240.80 730.46,236.25 ZM 605.61 238.84 C604.47,238.18 601.45,237.98 597.97,238.35 C592.00,238.97 591.19,238.64 582.34,232.00 C578.82,229.36 574.00,221.79 574.00,218.91 C574.00,217.37 573.59,215.86 573.08,215.55 C571.56,214.61 570.71,202.57 571.83,197.86 C574.31,187.49 575.41,184.50 579.51,176.98 C582.23,172.01 593.85,161.24 601.55,156.57 C608.30,152.47 609.90,151.89 613.07,152.40 C617.36,153.08 622.57,151.57 625.72,148.72 C627.78,146.85 628.35,146.80 633.91,147.98 C638.09,148.87 640.61,150.05 642.26,151.91 C643.56,153.37 646.07,155.69 647.84,157.08 C650.21,158.93 651.72,161.53 653.53,166.90 C656.43,175.46 656.48,176.17 654.47,180.05 C653.24,182.44 652.30,183.00 649.53,183.00 C647.65,183.00 645.84,183.45 645.50,184.00 C644.49,185.63 641.37,185.15 637.32,182.75 C626.44,176.31 619.55,176.53 608.44,183.68 C598.57,190.04 592.05,200.13 592.02,209.13 C591.96,222.08 605.25,231.00 624.59,231.00 C630.82,231.00 633.16,230.50 638.50,228.00 C642.03,226.35 645.61,225.00 646.46,225.00 C648.74,225.00 648.33,228.33 645.84,230.03 C644.66,230.84 642.23,232.74 640.46,234.25 C638.52,235.90 636.06,237.00 634.28,237.00 C632.66,237.00 626.86,237.67 621.41,238.49 C609.71,240.26 608.11,240.29 605.61,238.84 ZM 516.26 236.71 C515.16,235.50 513.74,233.52 513.12,232.32 C510.51,227.24 512.81,168.89 515.95,160.63 C516.53,159.11 517.00,156.62 517.00,155.09 C517.00,152.34 519.62,149.00 521.77,149.00 C522.38,149.00 523.02,150.69 523.19,152.75 C523.44,155.73 523.95,156.56 525.69,156.81 C527.30,157.04 528.32,156.29 529.50,154.00 C532.22,148.73 533.61,150.37 535.85,161.50 C536.40,164.25 537.13,167.75 537.45,169.27 L 538.05 172.04 L 543.77 167.99 C546.92,165.77 552.65,161.73 556.50,159.02 C560.35,156.31 563.95,153.72 564.50,153.26 C570.00,148.73 574.26,146.21 579.87,144.18 C589.97,140.52 591.00,140.40 591.00,142.86 C591.00,144.30 589.75,145.60 587.04,146.98 C584.86,148.09 582.59,149.00 582.00,149.00 C581.41,149.00 579.58,149.99 577.95,151.19 C575.73,152.84 575.15,153.90 575.64,155.43 C576.21,157.23 576.09,157.32 574.68,156.15 C573.32,155.02 572.65,155.12 570.29,156.82 C564.19,161.22 555.72,171.60 551.66,179.65 C550.24,182.48 547.79,186.76 546.22,189.15 C544.66,191.54 542.57,195.52 541.59,198.00 C540.60,200.48 539.17,203.98 538.40,205.78 C537.46,207.99 537.00,213.02 537.00,221.10 C537.00,227.72 536.53,234.00 535.96,235.07 C534.53,237.75 532.13,237.48 531.00,234.50 C530.48,233.12 529.40,232.00 528.61,232.00 C527.81,232.00 526.51,231.75 525.70,231.44 C524.72,231.06 523.89,231.86 523.20,233.86 C521.65,238.29 518.78,239.47 516.26,236.71 ZM 343.11 234.94 C339.85,232.23 341.05,231.45 344.88,233.78 C346.59,234.82 347.69,235.97 347.33,236.34 C346.34,237.33 345.73,237.13 343.11,234.94 ZM 800.00 215.50 C800.00,214.12 800.45,213.00 801.00,213.00 C801.55,213.00 802.00,214.12 802.00,215.50 C802.00,216.88 801.55,218.00 801.00,218.00 C800.45,218.00 800.00,216.88 800.00,215.50 ZM 442.00 199.02 C442.00,197.91 446.80,196.46 447.65,197.31 C447.95,197.62 447.90,198.35 447.54,198.93 C446.71,200.27 442.00,200.35 442.00,199.02 ZM 719.35 134.75 C713.93,128.64 714.69,119.54 721.17,113.06 C725.72,108.51 729.25,107.45 734.82,108.95 C737.87,109.77 739.05,110.71 739.83,112.94 C740.60,115.15 741.32,115.73 742.81,115.34 C744.56,114.88 744.86,115.50 745.48,120.84 C746.40,128.78 745.70,130.54 740.70,132.84 C732.87,136.44 730.91,137.00 726.13,137.00 C722.43,137.00 720.90,136.49 719.35,134.75 Z" fill="#70A6C1"/>
</g>
</svg>